<?xml version="1.0" encoding="UTF-8"?>
<svg width="103px" height="91px" viewBox="0 0 103 91" version="1.1" xmlns="http://www.w3.org/2000/svg" xmlns:xlink="http://www.w3.org/1999/xlink">
    <!-- Generator: Sketch 51.3 (57544) - http://www.bohemiancoding.com/sketch -->
    <title>Menu</title>
    <desc>Created with Sketch.</desc>
    <defs></defs>
    <g id="Chefmarket_01_main" stroke="none" stroke-width="1" fill="none" fill-rule="evenodd">
        <g id="Chefmarket_01_main_city-Copy" transform="translate(-222.000000, -1173.000000)">
            <g id="2" transform="translate(136.000000, 1023.000000)">
                <g id="how-it-work" transform="translate(0.000000, 152.000000)">
                    <g id="Menu" transform="translate(88.000000, 0.000000)">
                        <polygon id="Path-2" stroke="#4C494E" stroke-width="2.68656716" fill="#EAEAEA" stroke-linecap="round" stroke-linejoin="round" points="41.0744851 71.0907278 38.4091121 86.7369945 60.862392 86.7369945 57.7975114 71.0907278"></polygon>
                        <rect id="Rectangle-7-Copy-3" stroke="#4C494E" stroke-width="2.68656716" fill="#EAEAEA" stroke-linecap="round" stroke-linejoin="round" x="0" y="0" width="99.4029851" height="71" rx="4.02985075"></rect>
                        <rect id="Rectangle-7-Copy" stroke="#4C494E" stroke-width="2.68656716" fill="#FFFFFF" stroke-linecap="round" stroke-linejoin="round" x="5.37313433" y="5.37313433" width="88.6567164" height="57"></rect>
                        <path d="M27.4191931,86.7792278 L71.7475513,86.7792278" id="Path-3" stroke="#4C494E" stroke-width="2.68656716" stroke-linecap="round" stroke-linejoin="round"></path>
                        <g id="Oval-+-Oval-Copy-+-Oval-Copy-2-Mask" transform="translate(13.000000, 13.000000)" fill="#FFFFFF" stroke="#DADADA" stroke-width="2.68656716">
                            <path d="M10.234375,1.35890858 C5.73790293,1.35890858 2.07765858,5.01915293 2.07765858,9.515625 C2.07765858,14.0120971 5.73790293,17.6723414 10.234375,17.6723414 C14.7308471,17.6723414 18.3910914,14.0120971 18.3910914,9.515625 C18.3910914,5.01915293 14.7308471,1.35890858 10.234375,1.35890858 Z" id="Shape-Copy"></path>
                        </g>
                        <g id="Oval-+-Oval-Copy-+-Oval-Copy-2-Mask-Copy" transform="translate(41.000000, 36.000000)" fill="#FFFFFF" stroke="#DADADA" stroke-width="2.68656716">
                            <path d="M10.234375,1.35890858 C5.73790293,1.35890858 2.07765858,5.01915293 2.07765858,9.515625 C2.07765858,14.0120971 5.73790293,17.6723414 10.234375,17.6723414 C14.7308471,17.6723414 18.3910914,14.0120971 18.3910914,9.515625 C18.3910914,5.01915293 14.7308471,1.35890858 10.234375,1.35890858 Z" id="Shape-Copy"></path>
                        </g>
                        <g id="Oval-+-Oval-Copy-+-Oval-Copy-2-Mask-Copy-3" transform="translate(68.000000, 36.000000)" fill="#FFFFFF" stroke="#DADADA" stroke-width="2.68656716">
                            <path d="M10.234375,1.35890858 C5.73790293,1.35890858 2.07765858,5.01915293 2.07765858,9.515625 C2.07765858,14.0120971 5.73790293,17.6723414 10.234375,17.6723414 C14.7308471,17.6723414 18.3910914,14.0120971 18.3910914,9.515625 C18.3910914,5.01915293 14.7308471,1.35890858 10.234375,1.35890858 Z" id="Shape-Copy"></path>
                        </g>
                        <g id="Group-3" transform="translate(41.000000, 13.000000)" fill-rule="nonzero">
                            <path d="M9.5,0.015625 C4.26165289,0.015625 0,4.27727789 0,9.515625 C0,14.7539721 4.26165289,19.015625 9.5,19.015625 C14.7383471,19.015625 19,14.7539721 19,9.515625 C19,4.27727789 14.7383471,0.015625 9.5,0.015625 Z" id="Shape-Copy" fill="#59B958"></path>
                            <path d="M11.2430374,10.5385408 L9.19687285,10.4891855 L9.34493887,4.7725668 C9.34493887,3.99589493 8.71536075,3.3663168 7.93868887,3.3663168 C7.162017,3.3663168 6.53243887,3.99589493 6.53243887,4.7725668 L6.38437285,11.8954355 C6.38437285,12.6721074 7.01395098,13.3016855 7.79062285,13.3016855 L11.2430374,13.3510408 C12.0197093,13.3510408 12.6492874,12.7214627 12.6492874,11.9447908 C12.6492874,11.168119 12.0197093,10.5385408 11.2430374,10.5385408 Z" id="Shape" fill="#FFFFFF" transform="translate(9.516830, 8.358679) scale(-1, 1) rotate(-47.000000) translate(-9.516830, -8.358679) "></path>
                        </g>
                        <g id="Group-3-Copy" transform="translate(13.000000, 36.000000)" fill-rule="nonzero">
                            <path d="M9.5,0.015625 C4.26165289,0.015625 0,4.27727789 0,9.515625 C0,14.7539721 4.26165289,19.015625 9.5,19.015625 C14.7383471,19.015625 19,14.7539721 19,9.515625 C19,4.27727789 14.7383471,0.015625 9.5,0.015625 Z" id="Shape-Copy" fill="#59B958"></path>
                            <path d="M11.2430374,10.5385408 L9.19687285,10.4891855 L9.34493887,4.7725668 C9.34493887,3.99589493 8.71536075,3.3663168 7.93868887,3.3663168 C7.162017,3.3663168 6.53243887,3.99589493 6.53243887,4.7725668 L6.38437285,11.8954355 C6.38437285,12.6721074 7.01395098,13.3016855 7.79062285,13.3016855 L11.2430374,13.3510408 C12.0197093,13.3510408 12.6492874,12.7214627 12.6492874,11.9447908 C12.6492874,11.168119 12.0197093,10.5385408 11.2430374,10.5385408 Z" id="Shape" fill="#FFFFFF" transform="translate(9.516830, 8.358679) scale(-1, 1) rotate(-47.000000) translate(-9.516830, -8.358679) "></path>
                        </g>
                        <g id="Oval-+-Oval-Copy-+-Oval-Copy-2-Mask-Copy-2" transform="translate(67.000000, 13.000000)" fill-rule="nonzero">
                            <path d="M10.234375,0.015625 C4.99602789,0.015625 0.734375,4.27727789 0.734375,9.515625 C0.734375,14.7539721 4.99602789,19.015625 10.234375,19.015625 C15.4727221,19.015625 19.734375,14.7539721 19.734375,9.515625 C19.734375,4.27727789 15.4727221,0.015625 10.234375,0.015625 Z" id="Shape-Copy" fill="#59B958"></path>
                            <path d="M11.9774124,10.5385408 L9.93124785,10.4891855 L10.0793139,4.7725668 C10.0793139,3.99589493 9.44973575,3.3663168 8.67306387,3.3663168 C7.896392,3.3663168 7.26681387,3.99589493 7.26681387,4.7725668 L7.11874785,11.8954355 C7.11874785,12.6721074 7.74832598,13.3016855 8.52499785,13.3016855 L11.9774124,13.3510408 C12.7540843,13.3510408 13.3836624,12.7214627 13.3836624,11.9447908 C13.3836624,11.168119 12.7540843,10.5385408 11.9774124,10.5385408 Z" id="Shape" fill="#FFFFFF" transform="translate(10.251205, 8.358679) scale(-1, 1) rotate(-47.000000) translate(-10.251205, -8.358679) "></path>
                        </g>
                    </g>
                </g>
            </g>
        </g>
    </g>
</svg>