<?xml version="1.0" encoding="UTF-8"?>
<svg width="99px" height="91px" viewBox="0 0 99 91" version="1.1" xmlns="http://www.w3.org/2000/svg" xmlns:xlink="http://www.w3.org/1999/xlink">
    <!-- Generator: Sketch 51.3 (57544) - http://www.bohemiancoding.com/sketch -->
    <title>calendar</title>
    <desc>Created with Sketch.</desc>
    <defs></defs>
    <g id="Chefmarket_01_main" stroke="none" stroke-width="1" fill="none" fill-rule="evenodd" stroke-linecap="round" stroke-linejoin="round">
        <g id="Chefmarket_01_main_city-Copy" transform="translate(-1113.000000, -1173.000000)">
            <g id="2" transform="translate(136.000000, 1023.000000)">
                <g id="how-it-work-copy-3" transform="translate(890.000000, 152.000000)">
                    <g id="calendar" transform="translate(89.000000, 0.000000)">
                        <rect id="Rectangle-7-Copy-3-Copy" stroke="#4C494E" stroke-width="2.68656716" fill="#EAEAEA" x="5" y="14" width="90" height="73" rx="6"></rect>
                        <rect id="Rectangle-7-Copy-3" stroke="#4C494E" stroke-width="2.68656716" fill="#FFFFFF" x="0" y="11" width="90" height="71" rx="4"></rect>
                        <path d="M4,9 L86,9 C88.209139,9 90,10.790861 90,13 L90,28 L0,28 L0,13 C-2.705415e-16,10.790861 1.790861,9 4,9 Z" id="Rectangle-4" stroke="#4C494E" stroke-width="2.68656716" fill="#A6D8A5"></path>
                        <rect id="Rectangle-2" stroke="#4C494E" stroke-width="2.72727273" fill="#FFFFFF" x="19" y="0" width="6" height="18" rx="3"></rect>
                        <rect id="Rectangle-2-Copy-2" stroke="#4C494E" stroke-width="2.72727273" x="15" y="40" width="8" height="6" rx="3"></rect>
                        <rect id="Rectangle-2-Copy-3" stroke="#4C494E" stroke-width="2.72727273" x="32" y="40" width="8" height="6" rx="3"></rect>
                        <rect id="Rectangle-2-Copy-4" stroke="#4C494E" stroke-width="2.72727273" x="49" y="40" width="8" height="6" rx="3"></rect>
                        <rect id="Rectangle-2-Copy-5" stroke="#4C494E" stroke-width="2.72727273" x="66" y="40" width="8" height="6" rx="3"></rect>
                        <rect id="Rectangle-2-Copy-9" stroke="#4C494E" stroke-width="2.72727273" x="15" y="52" width="8" height="6" rx="3"></rect>
                        <rect id="Rectangle-2-Copy-8" stroke="#4C494E" stroke-width="2.72727273" x="32" y="52" width="8" height="6" rx="3"></rect>
                        <rect id="Rectangle-2-Copy-7" stroke="#59B958" stroke-width="2.72727273" x="49" y="52" width="8" height="6" rx="3"></rect>
                        <rect id="Rectangle-2-Copy-6" stroke="#59B958" stroke-width="2.72727273" x="66" y="52" width="8" height="6" rx="3"></rect>
                        <rect id="Rectangle-2-Copy-13" stroke="#4C494E" stroke-width="2.72727273" x="15" y="64" width="8" height="6" rx="3"></rect>
                        <rect id="Rectangle-2-Copy-12" stroke="#4C494E" stroke-width="2.72727273" x="32" y="64" width="8" height="6" rx="3"></rect>
                        <rect id="Rectangle-2-Copy-11" stroke="#4C494E" stroke-width="2.72727273" x="49" y="64" width="8" height="6" rx="3"></rect>
                        <rect id="Rectangle-2-Copy-10" stroke="#4C494E" stroke-width="2.72727273" x="66" y="64" width="8" height="6" rx="3"></rect>
                        <rect id="Rectangle-2-Copy" stroke="#4C494E" stroke-width="2.72727273" fill="#FFFFFF" x="67" y="0" width="6" height="18" rx="3"></rect>
                    </g>
                </g>
            </g>
        </g>
    </g>
</svg>