<?xml version="1.0" encoding="UTF-8"?>
<svg width="154px" height="91px" viewBox="0 0 154 91" version="1.1" xmlns="http://www.w3.org/2000/svg" xmlns:xlink="http://www.w3.org/1999/xlink">
    <!-- Generator: Sketch 51.3 (57544) - http://www.bohemiancoding.com/sketch -->
    <title>Delivery</title>
    <desc>Created with Sketch.</desc>
    <defs></defs>
    <g id="Chefmarket_01_main" stroke="none" stroke-width="1" fill="none" fill-rule="evenodd">
        <g id="Chefmarket_01_main_city-Copy" transform="translate(-506.000000, -1173.000000)">
            <g id="2" transform="translate(136.000000, 1023.000000)">
                <g id="how-it-work-copy" transform="translate(302.000000, 151.000000)">
                    <g id="Delivery" transform="translate(70.000000, 0.000000)">
                        <g id="Group-3" transform="translate(4.359649, 0.000000)">
                            <path d="M104.635933,36.3117268 L131.620961,36.3117268 C136.069025,36.1488295 138.641199,37.528817 139.337485,40.4516895 C140.033771,43.3745619 140.033771,45.1566377 139.337485,45.7979169 C134.193136,45.302008 131.620961,45.4918831 131.620961,46.3675419 C131.620961,47.6810303 130.64642,52.251949 132.839103,53.6128632 C134.300893,54.5201393 136.909738,54.9737773 140.665637,54.9737773 L140.117722,67.5570781 L103.502438,67.5570781 L104.635933,36.3117268 Z" id="Path-18" fill="#A6D8A5" fill-rule="nonzero"></path>
                            <polygon id="Rectangle-3" fill="#A6D8A5" fill-rule="nonzero" points="104.491228 11.2727273 124.885965 11.2727273 126.245614 18.0909091 104.491228 18.0909091"></polygon>
                            <path d="M104.221507,18.2777138 L126.282631,18.2777138" id="Path-15" stroke="#4C494E" stroke-width="2.72727273" stroke-linecap="round" stroke-linejoin="round"></path>
                            <path d="M104.737008,35.8768292 C112.044829,35.8768292 126.760183,35.8768292 131.325498,35.8768292 C135.890814,35.8768292 140.191961,39.888553 140.191961,44.0595766 C140.191961,46.840259 140.191961,54.9606245 140.191961,68.4206732 L88.3925225,68.4206732 C94.4169655,46.7247773 99.8651273,35.8768292 104.737008,35.8768292 Z" id="Path-14" stroke="#4C494E" stroke-width="2.72727273" stroke-linecap="round" stroke-linejoin="round"></path>
                            <path d="M103.033598,10.7003622 L122.852117,10.7003622 C124.074202,10.7003622 125.146173,11.5180078 125.472609,12.6991415 L131.947671,36.1276446 L104.491228,36.1276446 L103.033598,10.7003622 Z" id="Path-13" stroke="#4C494E" stroke-width="2.72727273" stroke-linecap="round" stroke-linejoin="round"></path>
                            <path d="M27.4127262,0.939780665 L104.491228,0 L104.491228,68.1818182 L27.5346422,69.1201124 C24.7734237,69.1537786 22.507722,66.9426605 22.4740558,64.181442 C22.4738081,64.1611236 22.4736842,64.1408039 22.4736842,64.120484 L22.4736842,5.93940906 C22.4736842,3.20176155 24.6752821,0.973156988 27.4127262,0.939780665 Z" id="Rectangle-2" fill="#EAEAEA" fill-rule="nonzero"></path>
                            <path d="M22.4736842,41.0786112 L22.4736842,3.09090909 C22.4736842,1.58467795 23.6911555,0.363636364 25.1929825,0.363636364 L101.77193,0.363636364 C103.273757,0.363636364 104.491228,1.58467795 104.491228,3.09090909 L104.491228,65.8181818 C104.491228,67.324413 103.273757,68.5454545 101.77193,68.5454545 L25.1929825,68.5454545 C23.6911555,68.5454545 22.4736842,67.324413 22.4736842,65.8181818 L22.4736842,57.020463" id="Rectangle-2-Copy" stroke="#4C494E" stroke-width="2.72727273" stroke-linecap="round" stroke-linejoin="round"></path>
                            <path d="M139.749107,46.0744937 L131.474244,46.0744937 C131.474244,47.2553556 131.474244,48.727273 131.474244,50.4902457 C131.474244,53.1347046 133.671233,54.9566466 137.402337,54.9566466 C139.889741,54.9566466 140.855721,54.9566466 140.300281,54.9566466 L139.749107,46.0744937 Z" id="Path-17" stroke="#4C494E" stroke-width="2.72727273" stroke-linecap="round" stroke-linejoin="round"></path>
                            <ellipse id="Oval-2" stroke="#4C494E" stroke-width="2.72727273" fill="#FFFFFF" fill-rule="nonzero" cx="44.6666667" cy="69.9090909" rx="10.877193" ry="10.9090909"></ellipse>
                            <ellipse id="Oval-2-Copy" stroke="#4C494E" stroke-width="2.72727273" fill="#FFFFFF" fill-rule="nonzero" cx="119.447368" cy="69.9090909" rx="10.877193" ry="10.9090909"></ellipse>
                            <path d="M9.14240245,56.8409359 L30.5108879,56.8409359" id="Path-16" stroke="#4C494E" stroke-width="2.72727273" stroke-linecap="round" stroke-linejoin="round"></path>
                            <path d="M0.545911188,50.022754 L25.0722914,50.022754" id="Path-16-Copy" stroke="#4C494E" stroke-width="2.72727273" stroke-linecap="round" stroke-linejoin="round"></path>
                        </g>
                        <path d="M49.0972193,65.6687057 C46.8479881,65.6687057 45.0182719,67.495063 45.0182719,69.7401654 C45.0182719,71.9852678 46.8479881,73.8116251 49.0972193,73.8116251 C51.3464506,73.8116251 53.1761667,71.9852678 53.1761667,69.7401654 C53.1761667,67.495063 51.3464506,65.6687057 49.0972193,65.6687057" id="Fill-4" fill="#59B958" fill-rule="nonzero"></path>
                        <path d="M124.034068,65.6687057 C121.784837,65.6687057 119.955121,67.5037876 119.955121,69.7596148 C119.955121,72.015442 121.784837,73.8505239 124.034068,73.8505239 C126.2833,73.8505239 128.113016,72.015442 128.113016,69.7596148 C128.113016,67.5037876 126.2833,65.6687057 124.034068,65.6687057" id="Fill-5" fill="#59B958" fill-rule="nonzero"></path>
                        <path d="M0,87.6363636 L110.210526,87.6363636" id="Path-3" stroke="#4C494E" stroke-width="2.68656716" stroke-linecap="round" stroke-linejoin="round"></path>
                        <path d="M118,88 L150.631579,88" id="Path-3-Copy" stroke="#4C494E" stroke-width="2.68656716" stroke-linecap="round" stroke-linejoin="round"></path>
                        <path d="M60.4177785,26.4897009 C60.2113203,29.0389127 60.0821983,30.9010851 60.0304127,32.076218 C59.6778632,31.9326477 55.3150556,29.5186588 55.3150556,33.7016461 C55.3150556,37.8846332 59.3965319,35.9458855 59.9438509,35.433823 C59.8632652,48.8132616 63.2423322,55.502981 70.0810519,55.502981 C78.6848414,55.502981 82.5789,46.002937 81.7632276,27.002849 C83.1484189,26.863374 84.4101957,25.8109519 85.5485583,23.8455827 C87.2561021,20.897529 86.4653701,16.4644843 82.0593775,15.0610744 C81.0651061,14.7561458 79.3129227,14.7561458 76.8028274,15.0610744 C74.9086366,12.9538988 72.9622329,11.900311 70.9636166,11.900311 C68.9650003,11.900311 67.0709784,12.9538988 65.2815511,15.0610744 C60.7456314,14.1466205 57.7230369,15.2896877 56.2137672,18.4902762 C54.7044975,21.6908646 56.1058346,24.3573395 60.4177785,26.4897009 Z" id="Path-9" fill="#FFFFFF" fill-rule="nonzero"></path>
                        <path d="M84.5422412,15.5862938 C84.7658579,15.7625487 84.9850467,15.9582627 85.1968554,16.1730616 C85.8252703,16.8095998 86.2987032,17.5194841 86.6167853,18.2982238 C86.9337601,19.0750924 87.0939082,19.9189452 87.0953842,20.8245435 C87.0964912,21.4206666 87.0245353,21.9954595 86.8832066,22.5436834 C86.7411397,23.0937781 86.5293311,23.6150585 86.2488876,24.1026594 C86.1079279,24.3440275 85.9488869,24.579034 85.7728716,24.8076789 C85.5975945,25.0359496 85.4060811,25.2559875 85.2001765,25.4662958 C84.8212087,25.8521106 84.4149345,26.1810448 83.9857822,26.4512274 C83.5518327,26.7236554 83.094267,26.9377059 82.616037,27.091882 C82.5160367,27.3059326 82.5020145,27.5353258 82.4850404,27.8163606 C82.461793,28.1898264 82.4315347,28.6605878 82.3931582,29.2484783 C82.3835641,29.413881 82.37397,29.5680571 82.3636379,29.7278466 L82.3503537,29.9351612 L82.297955,30.7284953 L82.2776598,31.0297377 C82.2669587,31.1940177 82.2558884,31.3530586 82.2455563,31.491892 C82.2296892,31.7063168 82.214929,31.905773 82.2009068,32.0809052 C82.1887296,32.2369524 82.1743384,32.4087167 82.1555192,32.615283 C82.1315339,32.8525347 82.0935265,33.0815539 82.0422348,33.3027144 C81.9902051,33.5268687 81.9241533,33.7469065 81.8448173,33.9605829 C81.8282121,34.0043659 81.8119759,34.0477748 81.7938947,34.0930547 C81.7758134,34.1394572 81.7577323,34.1821176 81.739651,34.2206616 C81.5429715,34.6427753 81.2403877,35.0364485 80.8337446,35.3994362 C80.4341126,35.7560623 79.9330043,36.0842481 79.3333718,36.381 C78.6437022,36.7226575 77.8890877,36.9939628 77.0750634,37.1926704 C76.2632533,37.391004 75.3938784,37.5171141 74.4732118,37.5691299 C73.8252396,37.6035576 73.1580792,37.630501 72.4768967,37.6484633 C71.7968211,37.6664256 71.1289227,37.6761552 70.4794746,37.6761552 C69.2879586,37.6761552 68.1016087,37.6473407 66.928543,37.5897117 C65.7742965,37.5332053 64.6414524,37.4478845 63.5381285,37.3344976 C63.4794568,37.3262649 63.4311172,37.3214001 63.3824086,37.3180322 C63.336652,37.3154127 63.2813013,37.3139158 63.2170944,37.3139158 C62.8820383,37.3139158 62.5705984,37.3741643 62.2860958,37.4935386 C62.0023311,37.6121645 61.7410759,37.7917873 61.504913,38.0312844 C61.3086025,38.229618 61.1532516,38.4459136 61.0399671,38.6779265 C60.9270517,38.9088166 60.8547268,39.1569205 60.8237304,39.42149 C60.7654276,39.8342481 60.7218851,40.2485033 60.6931028,40.665752 C60.6646894,41.0822524 60.6502982,41.5069854 60.6502982,41.9365832 C60.6502982,43.7477798 60.8967934,45.4343631 61.3864624,46.9847323 C61.8761316,48.5332303 62.6086059,49.9488826 63.581302,51.2208365 C64.537762,52.4725827 65.5975434,53.4144799 66.7517899,54.042411 C67.9008703,54.6673486 69.1473679,54.9820626 70.4827957,54.9820626 C71.8163784,54.9820626 73.0625071,54.6673486 74.2112185,54.0420368 C75.3643579,53.4141057 76.4234013,52.4722085 77.3780162,51.2208365 C78.3507125,49.9507535 79.0831866,48.5354757 79.5724868,46.9869774 C80.0625249,45.4369824 80.309389,43.7496508 80.309389,41.9365832 L80.309389,41.5994164 C80.3053299,41.4867778 80.2831897,41.3812495 80.2414922,41.2832053 C80.1994256,41.1836644 80.1363258,41.0912335 80.0514548,41.00479 C79.9628937,40.9157271 79.8684286,40.8494912 79.7676903,40.807205 C79.6658449,40.7649188 79.5525606,40.7439628 79.4252539,40.7439628 L72.1536487,40.746208 C72.0023568,40.7469565 71.8676701,40.7712804 71.7473746,40.821051 C71.627817,40.870073 71.5185916,40.9460385 71.4171154,41.0489473 C71.3149011,41.1526047 71.2388861,41.263372 71.1898086,41.3823721 C71.140731,41.5017465 71.1160077,41.6338441 71.1160077,41.7805359 L71.1160077,46.5738448 C71.1160077,46.7287696 71.0872253,46.8762102 71.0315056,47.0131725 C70.9754168,47.1501349 70.8923908,47.2743739 70.7846415,47.3821476 C70.6768921,47.4891728 70.5547516,47.5707515 70.4222789,47.625761 C70.2872232,47.6807704 70.1440495,47.7092106 69.9964476,47.7092106 L65.3776166,47.7092106 C65.4849969,48.1103682 65.6425619,48.4961832 65.8484665,48.8636615 C66.0846295,49.2846523 66.3853683,49.682442 66.7484688,50.0521655 C67.2650752,50.5749428 67.8377705,50.9697388 68.4628643,51.232437 C69.0868511,51.4943871 69.7654507,51.6268588 70.4949729,51.6268588 C70.66656,51.6268588 70.825601,51.7013274 70.9410994,51.8180824 C71.0573358,51.9352111 71.1315058,52.0964976 71.1315058,52.2693846 C71.1315058,52.4437684 71.0580738,52.6058029 70.9422065,52.722932 C70.8267079,52.8400611 70.666929,52.9145296 70.4949729,52.9145296 C69.5953395,52.9145296 68.753271,52.7498754 67.9754092,52.422438 C67.1979165,52.0957489 66.4872134,51.6073995 65.8495735,50.9603832 C65.4030779,50.5068358 65.0314903,50.0139958 64.7377626,49.4856054 C64.4432968,48.9557181 64.2281672,48.3928999 64.0945875,47.8012675 C64.0835174,47.7526197 64.0768752,47.7062172 64.0728162,47.6616856 C64.0672811,47.398987 64.0949565,47.2556633 64.1480931,47.1220689 C64.2008608,46.9895971 64.2798279,46.867229 64.3820421,46.7594552 C64.4912674,46.6479395 64.61267,46.5652382 64.7451426,46.5094801 C64.8787223,46.453348 65.0218961,46.4249079 65.171343,46.4249079 L69.8554879,46.4249079 L69.8554879,41.7835296 C69.8554879,41.4688156 69.9137906,41.1679474 70.0270749,40.8902805 C70.1403594,40.6137362 70.3082565,40.3611417 70.5278142,40.1399811 C70.749217,39.9154527 70.9964502,39.7451852 71.2665615,39.6314241 C71.5374109,39.5172887 71.8300316,39.4592856 72.1414715,39.4592856 L79.4315271,39.4570403 C79.7223027,39.4562919 80.0012702,39.5113014 80.2599424,39.6201977 C80.5164006,39.7279714 80.7514566,39.8877608 80.9566232,40.0973207 C81.1580997,40.2997705 81.3108675,40.5272927 81.415665,40.7761452 C81.5212002,41.0264945 81.5772889,41.2985481 81.5843001,41.58819 C81.5879901,41.7584574 81.5879901,41.8516366 81.5879901,41.939577 C81.5879901,42.9095401 81.5204622,43.8525597 81.3876206,44.7615259 C81.2540409,45.67386 81.0540404,46.5528891 80.789464,47.391503 C80.5219358,48.2323621 80.1861415,49.0425358 79.7842954,49.815288 C79.3828185,50.5869178 78.9163965,51.3215001 78.3861369,52.013796 C77.8496042,52.7139508 77.281337,53.331404 76.6839185,53.8624141 C76.0861311,54.3937981 75.4584541,54.839113 74.8038399,55.1949906 C74.1422146,55.5519908 73.4481169,55.8217995 72.7267129,56.0014221 C72.0049398,56.181419 71.2573364,56.2727273 70.4886997,56.2727273 C69.7189561,56.2727273 68.9706147,56.181419 68.2488416,56.0017963 C67.5266996,55.8217995 66.8322328,55.5519908 66.1706076,55.1949906 C65.5145173,54.8379904 64.8831504,54.3911787 64.2820418,53.856801 C63.6853614,53.3265392 63.1182012,52.7098344 62.5853585,52.0100541 C62.0532538,51.3162612 61.584618,50.5809301 61.1838789,49.8107974 C60.7824019,49.0391678 60.4477147,48.2308654 60.1820314,47.391503 C59.917824,46.5543859 59.7189306,45.677228 59.5860889,44.766765 C59.4536162,43.8559277 59.3864573,42.911037 59.3864573,41.939577 C59.3864573,41.485281 59.4015865,41.0287397 59.4322139,40.5736954 C59.4621033,40.1295031 59.5071218,39.6894272 59.5672696,39.2575842 C59.6185613,38.8526844 59.7318457,38.4702376 59.9063848,38.1136115 C60.0809241,37.7581081 60.3163491,37.427677 60.6119217,37.1264346 C60.9728084,36.7638211 61.3724402,36.4902706 61.8093417,36.307654 C62.2466122,36.1246633 62.7185691,36.0326065 63.2233676,36.0326065 C63.3004895,36.0326065 63.3813016,36.0344777 63.4669106,36.0389682 C63.5480916,36.0434588 63.6237376,36.0501947 63.6931104,36.0599243 C64.7757701,36.1706916 65.8901641,36.2545156 67.0266983,36.311022 C68.1484723,36.3664056 69.3016118,36.3948459 70.4765225,36.3948459 C71.1728344,36.3948459 71.8447917,36.386239 72.4868598,36.3690252 C73.1311419,36.3518113 73.7735789,36.3252421 74.410112,36.2893175 C75.2503355,36.2432892 76.0377913,36.1306508 76.7669445,35.9536474 C77.4960977,35.7770184 78.1687932,35.535276 78.7787578,35.2314141 C79.2592019,34.9930397 79.6518227,34.7423162 79.9551445,34.4807405 C80.2514553,34.2244039 80.4643709,33.9583375 80.5931536,33.6840385 L80.6617885,33.5152681 C80.7226742,33.352859 80.7724899,33.1863338 80.8116044,33.0168148 C80.8510878,32.8450505 80.8795012,32.6710408 80.8986895,32.4955344 C80.9108665,32.365308 80.9256267,32.1883047 80.942232,31.9791189 C80.9580992,31.7841533 80.9721213,31.598169 80.9868815,31.4035775 C80.9983207,31.2535176 81.0060698,31.1262849 81.0141879,30.99531 C81.0211989,30.873316 81.0289481,30.7501996 81.0363281,30.6461682 L81.0824537,29.9759506 L81.1348524,29.1687706 C81.1669558,28.6740595 81.1938931,28.2598044 81.2156644,27.9159016 C81.2304246,27.6880052 81.2426017,27.4926654 81.2529339,27.3268885 C81.182823,27.3295081 81.1211992,27.331005 81.0684315,27.331005 C80.5289468,27.331005 80.0160303,27.2520458 79.5330033,27.0952501 C79.0514523,26.9384543 78.6023736,26.703822 78.1887194,26.3924758 C78.1400108,26.3576739 78.0901952,26.317633 78.0396415,26.27385 C77.989088,26.2311895 77.9385343,26.1840385 77.8872426,26.1335196 C77.6285703,25.8719439 77.4344739,25.581928 77.3045843,25.263846 C77.1743257,24.9453897 77.1086428,24.6018612 77.1086428,24.2355054 C77.1086428,24.1400809 77.113809,24.0401657 77.1241411,23.937631 C77.1341042,23.8392126 77.1492334,23.7411685 77.1691596,23.645744 C77.2248792,23.3961432 77.3127024,23.1633819 77.431891,22.9463378 C77.5514485,22.7289193 77.7012643,22.5283405 77.8817075,22.345724 C78.1377967,22.0886389 78.4234064,21.8932992 78.7363223,21.7623242 C79.0492382,21.6313491 79.3868774,21.5651132 79.745181,21.5651132 C80.1075435,21.5651132 80.4462898,21.6306008 80.7592057,21.7615757 C81.0713836,21.8925507 81.3551482,22.0875163 81.6086544,22.3460982 C81.6285806,22.3655574 81.659577,22.3992366 81.7005365,22.4445166 C81.7370679,22.4849316 81.7680644,22.5197335 81.7964777,22.5530387 C81.9274744,22.7180671 82.0374377,22.8789792 82.132272,23.0440077 C82.2259991,23.2075392 82.305704,23.3759356 82.3699109,23.5499451 C82.4477709,23.7527693 82.5064426,23.9660713 82.5451882,24.1868577 C82.5839335,24.4080182 82.6034909,24.6374115 82.6034909,24.872418 C82.6034909,24.9554935 82.5857786,25.0400659 82.5525682,25.1182767 C82.5208339,25.1942421 82.4743392,25.2645945 82.4149294,25.3229719 C82.3584718,25.3820976 82.2887299,25.429997 82.2127149,25.4629279 C82.1363309,25.4958587 82.0533049,25.5145695 81.9702789,25.5145695 C81.8005368,25.5145695 81.6411267,25.4389782 81.5248903,25.321475 C81.4082848,25.2028491 81.3337458,25.0411885 81.3337458,24.86905 C81.3337458,24.7088863 81.3219378,24.556207 81.2972145,24.4121346 C81.2728602,24.2684363 81.2366977,24.133345 81.189465,24.007609 C81.1462915,23.8972159 81.0953689,23.7886937 81.0352211,23.6839138 C80.9754424,23.5802565 80.9049625,23.4777218 80.8226745,23.376684 C80.7547776,23.3010927 80.7341134,23.2793884 80.7097591,23.2546902 C80.5754414,23.1162309 80.4300535,23.0148189 80.2717505,22.948583 C80.1138166,22.8823471 79.9385394,22.8494162 79.745181,22.8494162 C79.5518224,22.8494162 79.3769143,22.8823471 79.2186113,22.948583 C79.0603083,23.0144447 78.9138135,23.1166051 78.7776509,23.2546902 C78.6824476,23.3519859 78.6027426,23.4582627 78.5400118,23.5712754 C78.4802331,23.6797975 78.4359526,23.7950554 78.4104912,23.9155524 C78.3994211,23.9675682 78.3909339,24.0192098 78.3861369,24.0697287 C78.3809708,24.1198733 78.3783877,24.1748828 78.3783877,24.2325118 C78.3783877,24.4286 78.4104912,24.6052291 78.475805,24.765767 C78.5414879,24.9263048 78.6414881,25.0748678 78.7769127,25.213327 C78.8905662,25.3124938 78.9189796,25.3353208 78.9418579,25.3532832 C79.2455487,25.581928 79.5743318,25.7536924 79.9256243,25.8674535 C80.2802376,25.9827114 80.6625265,26.0399661 81.0684315,26.0399661 C81.2020112,26.0399661 81.3263658,26.0343529 81.4433403,26.0235006 C81.5647427,26.0122742 81.6850384,25.9954347 81.8049649,25.973356 C81.8702786,25.9598843 81.9414965,25.9434189 82.0212015,25.9228371 C82.0946335,25.9037522 82.1662204,25.8831705 82.2341172,25.8607175 C82.615668,25.7390979 82.9791376,25.5692048 83.3241568,25.3517863 C83.6710213,25.1332452 84.0005423,24.8656821 84.3101373,24.5520906 C84.4806174,24.381449 84.6363373,24.2036972 84.7769282,24.0207065 C84.9175189,23.8380901 85.0455635,23.6461182 85.160324,23.4470363 C85.3850477,23.0615957 85.5536828,22.6484633 85.6662293,22.2113811 C85.7791447,21.7739248 85.8359714,21.3095251 85.8359714,20.8215497 C85.8359714,20.0948259 85.7079269,19.4189952 85.4540517,18.7977996 C85.1994385,18.174733 84.8178876,17.6036824 84.3116133,17.0887636 C84.1333841,16.911012 83.9488818,16.7463576 83.7599513,16.5981688 C83.5758181,16.4537222 83.3879947,16.3246183 83.1979573,16.2134768 C82.6422364,15.885291 82.0510909,15.6379354 81.4282111,15.4732812 C80.8049622,15.3086269 80.14592,15.2255513 79.4558813,15.2255513 C79.0813416,15.2255513 78.718979,15.2487526 78.3710077,15.2955294 C78.1097523,15.3307055 77.8532942,15.3789792 77.602371,15.4407245 C77.6337365,15.5073346 77.6643638,15.5754415 77.6931462,15.6446712 C77.9263572,16.1850365 78.072114,16.7336344 78.1278336,17.2856003 C78.1831844,17.8371919 78.1496049,18.3917773 78.0248814,18.9437431 C78.0079071,19.013347 77.989088,19.0822024 77.9662096,19.1581678 C77.9448073,19.2303912 77.92156,19.2996208 77.8957297,19.3666052 C77.755139,19.7310897 77.5584595,20.046178 77.3075364,20.3107475 C77.0566131,20.5749426 76.7521844,20.7878705 76.3964639,20.9484084 C76.0448025,21.1040814 75.683547,21.1860343 75.3182324,21.1927703 C74.9551318,21.1995061 74.5905553,21.1321475 74.2307758,20.9899461 C73.8706272,20.8488675 73.5591873,20.6497855 73.2983011,20.3960683 C73.0359387,20.1408542 72.8256061,19.831005 72.667672,19.4691399 C72.5149042,19.1057779 72.4344612,18.739048 72.427819,18.370447 C72.421177,18.0037172 72.4875978,17.6377358 72.6278196,17.2762449 C72.658816,17.2021505 72.6813252,17.1497605 72.6990375,17.110468 C72.7230228,17.0580781 72.743687,17.0154177 72.7628753,16.977622 C72.9654588,16.575716 73.2263451,16.2232063 73.5436891,15.9234608 C73.8614021,15.623341 74.2344657,15.3763596 74.6595591,15.1858847 L75.0414789,15.0227273 C75.2038409,14.955743 75.3791182,14.9654725 75.5289341,15.0290889 C75.6798569,15.0930796 75.8101155,15.2132023 75.8743224,15.3692496 C75.9064257,15.4508282 75.9200789,15.5357749 75.9193409,15.619973 C75.9186029,15.7056681 75.9027358,15.790989 75.8728463,15.8654575 C75.8355768,15.9489073 75.7853922,16.0196338 75.7256135,16.0780112 C75.6650967,16.137137 75.5935098,16.1846622 75.5171258,16.2153478 L75.1621435,16.3646592 C74.8757958,16.4926404 74.6248727,16.6576689 74.4123261,16.8582477 C74.2001483,17.0584523 74.0248712,17.2945815 73.8890775,17.5640155 C73.853653,17.6261352 73.8318818,17.6777766 73.8030994,17.7470063 C73.7241323,17.956192 73.6883389,18.1530286 73.692767,18.3491169 C73.6968261,18.546702 73.7429516,18.7465324 73.8300367,18.9501047 C73.9193358,19.1540515 74.0337273,19.324319 74.175056,19.4620298 C74.3163849,19.6001147 74.4876029,19.7086369 74.6894485,19.7887187 C74.891663,19.8691748 75.0924016,19.9073446 75.289819,19.9036025 C75.4872365,19.9002346 75.685392,19.8542061 75.8820714,19.7670143 C76.083917,19.6772029 76.2525521,19.5611965 76.3890839,19.4174983 C76.5252465,19.2741743 76.6322578,19.1005389 76.7112249,18.8962179 C76.7614095,18.7439128 76.7739557,18.6986329 76.7865018,18.6492366 C76.878753,18.2364784 76.9031073,17.8207265 76.8606718,17.4064714 C76.8174982,16.9884743 76.7060588,16.5697285 76.5267225,16.1539767 C76.4721099,16.0248728 76.4123312,15.9006336 76.3477553,15.7808851 C76.2780135,15.6517813 76.2049505,15.5320328 76.1304116,15.4208911 C76.0115921,15.2367778 75.8828094,15.0586519 75.7429567,14.8846423 C75.6016279,14.7091358 75.448491,14.5369973 75.285391,14.3697235 C74.6938765,13.7713551 74.0377864,13.3208014 73.3219172,13.0206816 C72.6075244,12.7209361 71.8296626,12.5697535 70.9934981,12.5697535 C70.1569646,12.5697535 69.3772578,12.7209361 68.6606508,13.02143 C67.9440438,13.3215497 67.2868466,13.7717293 66.6960701,14.3693494 C66.5311251,14.5373716 66.3802021,14.7065164 66.2444084,14.875287 C66.1027107,15.0507934 65.9739281,15.2289193 65.8591676,15.4081678 C65.7816767,15.5234258 65.7100898,15.6413033 65.6432999,15.7647939 C65.572082,15.8950205 65.5078752,16.0263696 65.4506795,16.1569704 C65.2739263,16.5701029 65.1635939,16.9873516 65.1215273,17.4049746 C65.0787229,17.8229717 65.1038152,18.2420916 65.1956973,18.6597147 C65.2355498,18.805284 65.2510479,18.8498154 65.2702363,18.9010828 C65.3488342,19.1061522 65.4532626,19.2775422 65.5879493,19.4189952 C65.722636,19.560448 65.8905331,19.6753318 66.0964376,19.7670143 C66.2920101,19.8545805 66.4886895,19.9002346 66.685369,19.9036025 C66.8824175,19.9073446 67.083156,19.8691748 67.2853706,19.7887187 C67.4886921,19.7090112 67.6602793,19.600489 67.801977,19.4620298 C67.9433057,19.324319 68.0569592,19.1544257 68.1444134,18.9512274 C68.2333434,18.7480291 68.2791001,18.5493215 68.28279,18.3517363 C68.2864801,18.1534029 68.2481036,17.9520756 68.1695057,17.7462579 C68.1207971,17.631 68.1049298,17.5988175 68.0868487,17.5621445 C67.952531,17.2934588 67.7779917,17.0592008 67.566552,16.860493 C67.3532674,16.6610368 67.1001302,16.49526 66.8097236,16.3657819 L66.443671,16.210483 C66.36987,16.1794232 66.3008662,16.131898 66.2433015,16.0738948 C66.1849987,16.0155174 66.1366591,15.9455394 66.1038177,15.8699481 C66.0698693,15.78575 66.053633,15.7000549 66.053633,15.6162309 C66.053633,15.532407 66.0698693,15.4463378 66.1023416,15.3662559 C66.1665485,15.2124538 66.2909031,15.095699 66.4359219,15.0317085 C66.5813097,14.9673436 66.7510519,14.953872 66.9034507,15.0085071 L67.3071418,15.1780261 C67.7396152,15.369998 68.1137859,15.6166051 68.4329749,15.9170991 C68.752164,16.217593 69.0152643,16.5723481 69.2211688,16.9794931 C69.2436781,17.0270183 69.2650803,17.0730466 69.2846377,17.1175782 C69.307885,17.1699681 69.3307632,17.2234808 69.3499514,17.2732512 C69.4898042,17.6414779 69.556594,18.0100789 69.549214,18.3783055 C69.5422029,18.7439128 69.4617598,19.1072747 69.3067779,19.4650235 C69.150689,19.8272627 68.9410943,20.1374863 68.6794701,20.3923261 C68.4189528,20.6464175 68.1078819,20.8454995 67.7469954,20.9865782 C67.3909059,21.1280312 67.0266983,21.1950155 66.6628597,21.1882797 C66.2993902,21.1815437 65.9373966,21.1007135 65.5861042,20.946163 C65.2307527,20.7882447 64.9277999,20.5756911 64.6776148,20.3114959 C64.4266917,20.0469265 64.2289052,19.7303413 64.0861003,19.3651082 C64.054735,19.2809101 64.0303806,19.2094352 64.0100854,19.1431993 C63.9883142,19.072847 63.9706019,19.0073596 63.9562107,18.9448658 C63.8340702,18.3846672 63.8004908,17.8278365 63.8562105,17.2751222 C63.9115612,16.7254017 64.055473,16.1797974 64.2879459,15.6416775 C64.3178354,15.5698284 64.3473556,15.502844 64.3768761,15.4407245 C63.7920037,15.2974005 63.1709689,15.2255513 62.5277938,15.2255513 C61.8381241,15.2255513 61.1790818,15.3086269 60.5554641,15.4732812 C59.9314772,15.6383095 59.3392247,15.8856651 58.7838728,16.2134768 C58.5908834,16.3268637 58.4012151,16.4574643 58.2163437,16.6026594 C58.0303653,16.7489772 57.848815,16.911012 57.6731689,17.0876409 C57.1680015,17.6018112 56.7864508,18.1724878 56.5322066,18.7948059 C56.2790694,19.4156271 56.1510247,20.0910838 56.1510247,20.818556 C56.1510247,21.3072797 56.2074825,21.7728021 56.3196598,22.211007 C56.4314683,22.6469664 56.5993653,23.0589762 56.8226132,23.4432942 C56.9370046,23.6382597 57.0654183,23.8287347 57.207116,24.0132223 C57.3477068,24.1958387 57.5034268,24.3750874 57.6727999,24.5490969 C57.9816567,24.8608174 58.3111779,25.1265094 58.6584113,25.3454247 C59.0060136,25.5639657 59.3702212,25.7353558 59.748082,25.8577238 C59.8178238,25.8801767 59.8890417,25.9007585 59.9632116,25.9198434 C60.0318465,25.9374315 60.1049094,25.9538968 60.1812934,25.9696138 C60.3012199,25.992441 60.4240984,26.0092805 60.5477149,26.020507 C60.6646894,26.0313593 60.789782,26.0369724 60.9215167,26.0369724 C61.3266837,26.0369724 61.7074965,25.9797177 62.061003,25.8655823 C62.4134024,25.7518212 62.7429235,25.5811795 63.0466143,25.3540315 C63.0761347,25.3308302 63.1060241,25.3061322 63.1348064,25.2810598 C63.347722,25.0726225 63.4466153,24.9251822 63.5115602,24.7642701 C63.576136,24.6048549 63.6086084,24.4271031 63.6086084,24.2295181 C63.6086084,24.1666501 63.6060253,24.1101437 63.6012283,24.0603733 C63.5960622,24.0102286 63.5875751,23.9589612 63.576505,23.9065712 C63.5491986,23.7853258 63.5041801,23.6681968 63.4429253,23.5578036 C63.3824086,23.4485331 63.3041795,23.3448758 63.2089764,23.2483285 C63.0724446,23.1106178 62.9252117,23.0088315 62.7658017,22.9422214 C62.6071299,22.8759855 62.4318526,22.8430546 62.2384942,22.8430546 C62.0451358,22.8430546 61.8702275,22.8759855 61.7115556,22.9422214 C61.5536215,23.0084573 61.4071268,23.1102436 61.2713331,23.2483285 C61.186093,23.3415079 61.1672737,23.3635865 61.1536206,23.3804262 C61.0772366,23.4765992 61.0086017,23.5780112 60.9488229,23.6820428 C60.8901512,23.7845775 60.8399666,23.8912284 60.7990071,23.9997505 C60.7499295,24.1273576 60.71266,24.2646942 60.6875677,24.4113861 C60.6624754,24.5547102 60.6499292,24.7066411 60.6499292,24.8660563 L60.6521433,25.094327 C60.6569403,25.2675882 60.5883054,25.4296228 60.477604,25.548623 C60.3676406,25.6650035 60.2163488,25.7428401 60.0517727,25.7503243 C59.9632116,25.7578086 59.8772336,25.7424658 59.7986355,25.7114061 C59.7163475,25.6788495 59.6421775,25.6290789 59.5812918,25.569579 C59.521144,25.5112015 59.4713284,25.4382298 59.43738,25.3596448 C59.4026936,25.2806856 59.3835054,25.1949905 59.3835054,25.1092955 L59.3783393,24.8802765 C59.3772322,24.6344177 59.3964206,24.4012824 59.4351659,24.1767538 C59.4739115,23.9552191 59.5322142,23.7422912 59.6108122,23.5398414 C59.6753879,23.3677029 59.754355,23.2000549 59.8469751,23.0391429 C59.9414404,22.8759855 60.0502968,22.7165702 60.1724373,22.5627683 C60.2008506,22.5290889 60.229633,22.4957839 60.2650574,22.4561172 C60.2997438,22.4175732 60.3322162,22.3820228 60.3632127,22.3490919 C60.6252059,22.085271 60.9111846,21.8884343 61.2237315,21.7570851 C61.5370164,21.6249875 61.8746556,21.5587516 62.2355421,21.5587516 C62.5960597,21.5587516 62.9336989,21.6246133 63.2469839,21.7555883 C63.5595308,21.8858149 63.8447714,22.0811547 64.1015985,22.3393624 C64.2824108,22.5223531 64.4325957,22.723306 64.5517842,22.9399761 C64.6702348,23.1558977 64.7565818,23.3875362 64.8104565,23.6326465 C64.8325967,23.7276969 64.848095,23.825741 64.8576891,23.9267788 C64.8676522,24.0311845 64.8720803,24.1310997 64.8720803,24.2295181 C64.8720803,24.5954995 64.8071354,24.939028 64.6776148,25.2574843 C64.5488323,25.5744437 64.3565807,25.8637112 64.1015985,26.1222932 C64.050307,26.172438 64.0019672,26.2177178 63.9521517,26.2611267 C63.9038121,26.3030387 63.8532585,26.3442023 63.7990147,26.3853658 C63.3790875,26.698583 62.9266878,26.9339637 62.4436607,27.0915079 C61.9606337,27.2483035 61.4495623,27.327637 60.9122915,27.327637 C60.8609999,27.327637 60.8015902,27.3268885 60.7252062,27.3246433 L60.7654276,27.9641753 C60.787568,28.313317 60.8137673,28.7163458 60.8429186,29.162409 C60.8562028,29.3802016 60.870963,29.616705 60.8871991,29.8730417 C60.9026974,30.1114161 60.9196716,30.3655075 60.9384908,30.6409291 C60.9728084,31.1588415 61.0045427,31.6501847 61.033325,32.1089712 C61.0639524,32.5898364 61.0908898,33.0284154 61.1137681,33.4168497 C61.1381224,33.8831205 61.0790817,34.3194542 60.9377528,34.7265992 C60.7956861,35.1352411 60.5713313,35.5128231 60.2661644,35.8571001 C59.9624736,36.2002546 59.6163472,36.4655724 59.2311064,36.6523052 C58.8466036,36.8386639 58.4244623,36.9449408 57.9687415,36.970013 C57.5159729,36.9950854 57.0849754,36.9344627 56.6820224,36.7903903 C56.2794384,36.6463178 55.9060057,36.4191698 55.5672594,36.1104432 C55.300838,35.8653328 55.0812804,35.5962729 54.9100622,35.3036375 C54.7395821,35.0121246 54.6170725,34.6974105 54.5447476,34.360992 C54.5259283,34.2782907 54.5104302,34.1881051 54.497884,34.0893125 C54.4853379,33.9912684 54.4761127,33.8902306 54.4698396,33.7854507 C54.4469614,33.3259156 54.503788,32.8951952 54.6395818,32.4944119 C54.7757445,32.0932542 54.9912432,31.7216596 55.2853399,31.3818732 C55.5451191,31.1019609 55.8285147,30.8946463 56.1388476,30.7520708 C56.4510256,30.6083725 56.7901408,30.5312844 57.1543484,30.5193095 C57.5469693,30.5181868 57.8362689,30.5675832 58.1104394,30.6641304 C58.3857168,30.761426 58.6425441,30.9054985 58.879445,31.0948509 C58.9440208,31.1491119 58.9982644,31.215722 59.038855,31.2898164 C59.0794456,31.3631625 59.1067519,31.444741 59.115977,31.5263198 C59.1252021,31.6093954 59.117084,31.6973357 59.0930986,31.7796628 C59.0698515,31.8601189 59.0307369,31.937207 58.9779692,32.0030686 C58.878338,32.1280561 58.7311051,32.2058927 58.5779682,32.2287197 C58.4263072,32.2515469 58.2639453,32.2208612 58.1322106,32.1303015 C57.9587784,31.993339 57.8318409,31.9207415 57.6986302,31.8739647 C57.5620985,31.8260653 57.4133896,31.802864 57.2473375,31.802864 C56.9967834,31.8081031 56.8237202,31.8466471 56.6661553,31.9184963 C56.5074832,31.9910938 56.3620954,32.0988675 56.2296228,32.2425657 C56.0543455,32.4465124 55.9244559,32.6717893 55.8421679,32.915777 C55.7595109,33.1608872 55.7240865,33.4258309 55.7377395,33.7068657 C55.7421676,33.7832053 55.7480718,33.8513123 55.7554518,33.9108124 C55.7628318,33.9703125 55.7724261,34.0249476 55.7842342,34.0747182 C55.8296217,34.2820328 55.9041607,34.4732562 56.008589,34.6506338 C56.1141242,34.8306308 56.250656,34.997156 56.416339,35.1494612 C56.6274097,35.3410588 56.8584066,35.4821376 57.1067467,35.5708264 C57.3536108,35.6591409 57.6192942,35.6965622 57.9012137,35.6808454 C58.1838713,35.6651284 58.4458646,35.600015 58.6842415,35.4843829 C58.9207736,35.3702476 59.1340582,35.2063418 59.3211436,34.9937881 C59.512288,34.7778665 59.6517718,34.5451054 59.7381187,34.2955045 C59.8244658,34.0459037 59.8595213,33.7768437 59.8429161,33.4886987 C59.8211448,33.1215947 59.7949455,32.6942421 59.7639491,32.2066411 C59.7362738,31.7680621 59.7041703,31.2740994 59.6676389,30.7225078 C59.6480817,30.4384793 59.6303694,30.1548249 59.6133953,29.8835196 C59.6001111,29.6672239 59.5868269,29.4580382 59.5720667,29.2398713 L59.5255721,28.5034179 C59.4890407,27.928625 59.4591512,27.4589862 59.439225,27.1098444 C58.8779689,26.9264794 58.4218793,26.7116805 57.9890369,26.4396268 C57.5591464,26.1694442 57.1525034,25.8416326 56.7720595,25.4576889 C56.5624649,25.2436384 56.3694755,25.0217295 56.1941983,24.793833 C56.0192901,24.566685 55.8617251,24.3328011 55.7237175,24.0940525 C55.4417979,23.6079484 55.2296201,23.0889133 55.0882914,22.5406896 C54.9465937,21.990969 54.8753758,21.414305 54.8753758,20.8151881 C54.8753758,19.9144547 55.0347857,19.0724728 55.3517607,18.2952301 C55.6687357,17.5179872 56.1417996,16.8084773 56.7683695,16.1726874 C56.9823922,15.9567658 57.2034259,15.7588066 57.4318399,15.5791838 C57.6620988,15.3984383 57.8989997,15.2364035 58.1410667,15.0942021 C58.7912528,14.7087616 59.4864576,14.4179972 60.2207768,14.2234059 C60.95362,14.029563 61.7226258,13.9315189 62.5218898,13.9315189 C62.9945847,13.9315189 63.4580544,13.9651981 63.9093471,14.0325567 C64.3067651,14.0920566 64.694958,14.178126 65.0709737,14.2903902 C65.1610109,14.1680222 65.2562141,14.047151 65.3562143,13.928151 C65.495329,13.7631225 65.6407168,13.6040814 65.7909018,13.451402 C66.5052947,12.729543 67.2993928,12.1850614 68.1676606,11.820951 C69.0370355,11.4560922 69.9776284,11.2727273 70.984273,11.2727273 C71.9898107,11.2727273 72.9296654,11.4560922 73.7986713,11.820951 C74.6665702,12.1854355 75.4602991,12.7299171 76.1735851,13.451402 C76.321556,13.6007135 76.4639917,13.7575092 76.6012615,13.919544 C76.7031068,14.0400409 76.8016309,14.16428 76.8960962,14.2911387 C77.273588,14.1792486 77.6639948,14.0928051 78.0643648,14.0329309 C78.5141815,13.9659465 78.9761753,13.9315189 79.4466562,13.9315189 C80.2466582,13.9315189 81.0164019,14.029563 81.7503521,14.2237801 C82.4828264,14.4179972 83.177662,14.7087616 83.8278482,15.0945765 C84.0739742,15.2416426 84.3134583,15.4059226 84.5422412,15.5862938 Z M63.3983158,39.5584415 L67.5652057,39.5584415 C67.7312894,39.5584415 67.8862531,39.6320712 67.9981713,39.7490562 C68.1097308,39.8660412 68.1811145,40.0263818 68.1811145,40.1998037 C68.1811145,40.3732255 68.1097308,40.5343137 67.9978126,40.6516725 C67.8858945,40.769405 67.7309308,40.8441559 67.5652057,40.8441559 L63.3983158,40.8441559 C63.2329496,40.8441559 63.0787032,40.7690312 62.9667851,40.6512987 C62.8545082,40.5335661 62.7827658,40.3717306 62.7827658,40.1998037 C62.7827658,40.0275031 62.8541494,39.8671625 62.9660677,39.7501775 C63.0779859,39.6328186 63.2325908,39.5584415 63.3983158,39.5584415 Z" id="Fill-1" stroke="#4C494E" fill="#4C494E" fill-rule="nonzero" stroke-linecap="round" stroke-linejoin="round"></path>
                    </g>
                </g>
            </g>
        </g>
    </g>
</svg>