<?xml version="1.0" encoding="UTF-8"?>
<svg width="106px" height="112px" viewBox="0 0 106 112" version="1.1" xmlns="http://www.w3.org/2000/svg" xmlns:xlink="http://www.w3.org/1999/xlink">
    <!-- Generator: Sketch 51.3 (57544) - http://www.bohemiancoding.com/sketch -->
    <title>pan</title>
    <desc>Created with Sketch.</desc>
    <defs></defs>
    <g id="Chefmarket_01_main" stroke="none" stroke-width="1" fill="none" fill-rule="evenodd">
        <g id="Chefmarket_01_main_city-Copy" transform="translate(-824.000000, -1158.000000)" stroke="#4C494E">
            <g id="2" transform="translate(136.000000, 1023.000000)">
                <g id="how-it-work-copy-2" transform="translate(605.000000, 135.000000)">
                    <g id="pan" transform="translate(85.000000, 0.000000)">
                        <path d="M15.3344648,36.8939542 L73.1278124,36.8939542 C73.6095083,36.8939542 74,37.2844459 74,37.7661418 C74,38.0017688 73.9046643,38.227371 73.7356944,38.3915941 L73.7356944,38.3915941 C72.7505831,39.3490316 72.1947666,40.6643152 72.1947666,42.038044 L72.1947666,83.2321274 C72.1947666,86.5490546 68.839475,89.2379554 64.700513,89.2379554 L21.1563158,89.2379554 C17.0173538,89.2379554 13.6620623,86.5490546 13.6620623,83.2321274 L13.6620623,42.3464443 C13.6620623,40.9466007 13.1579089,39.593581 12.2418886,38.5350589 L12.2418886,38.5350589 C11.8833868,38.1207863 11.9285979,37.4943288 12.3428706,37.135827 C12.5231497,36.9798176 12.7535853,36.8939542 12.9919956,36.8939542 L15.3344648,36.8939542 Z" id="Rectangle-3-Copy-2" stroke-width="2.72727273" fill="#EAEAEA" stroke-linecap="round" stroke-linejoin="round"></path>
                        <path d="M13,52 L10,52 C8.34314575,52 7,51.4030463 7,50.6666667 L7,49.3333333 C7,48.5969537 8.34314575,48 10,48 L13,48" id="Rectangle-3" stroke-width="2.72727273" stroke-linecap="round" stroke-linejoin="round"></path>
                        <path d="M73,48 L76,48 C77.6568542,48 79,48.5969537 79,49.3333333 L79,50.6666667 C79,51.4030463 77.6568542,52 76,52 L73,52" id="Rectangle-3-Copy" stroke-width="2.72727273" stroke-linecap="round" stroke-linejoin="round"></path>
                        <path d="M0,104 L59.672998,104" id="Path-3" stroke-width="2.68656716" stroke-linecap="round" stroke-linejoin="round"></path>
                        <circle id="Oval-4" stroke-width="2.72727273" stroke-linecap="round" stroke-linejoin="round" cx="78" cy="25" r="4"></circle>
                        <path d="M68,33 C68,29.6862915 65.3137085,27 62,27 C58.6862915,27 56,29.6862915 56,33" id="Oval-4-Copy" stroke-width="2.72727273" stroke-linecap="round" stroke-linejoin="round"></path>
                        <circle id="Oval-5" stroke-width="2" fill="#4C494E" fill-rule="nonzero" cx="66" cy="9" r="1"></circle>
                        <circle id="Oval-5-Copy" stroke-width="2" fill="#4C494E" fill-rule="nonzero" cx="78" cy="2" r="1"></circle>
                        <g id="Group" transform="translate(61.000000, 69.000000)" stroke-linecap="round" stroke-linejoin="round" stroke-width="2.72727273">
                            <circle id="Oval-3" fill="#FFFFFF" cx="20.5" cy="20.5" r="20.5"></circle>
                            <path d="M20.5,41 C31.8218374,41 41,31.8218374 41,20.5 C41,9.17816263 31.8218374,0 20.5,0" id="Oval-3-Copy" fill="#A6D8A5"></path>
                            <polyline id="Path-4" points="20.7123311 6.94696111 20.7123311 21.2012174 33.1410229 21.2012174"></polyline>
                        </g>
                        <g id="Group-5" transform="translate(9.000000, 17.000000)" stroke-linecap="round" stroke-linejoin="round" stroke-width="2.72727273">
                            <path d="M32.0253993,8.37004541 L29.0253993,8.37004541 C27.368545,8.37004541 26.0253993,7.02689966 26.0253993,5.37004541 L26.0253993,2.37004541 C26.0253993,0.713191161 27.368545,-0.629954589 29.0253993,-0.629954589 L32.0253993,-0.629954589" id="Rectangle-3-Copy-3" transform="translate(29.025399, 3.870045) rotate(78.000000) translate(-29.025399, -3.870045) "></path>
                            <path d="M0.0151798894,13.9447886 L61.2291603,0.427120681" id="Path-6"></path>
                        </g>
                    </g>
                </g>
            </g>
        </g>
    </g>
</svg>